<svg version="1.1" xmlns="http://www.w3.org/2000/svg" xmlns:xlink="http://www.w3.org/1999/xlink" width="700" height="700" viewBox="-62,263,700,700"><g id="document" fill-opacity="0" fill="#ffffff" fill-rule="nonzero" stroke="#000000" stroke-width="0" stroke-linecap="butt" stroke-linejoin="miter" stroke-miterlimit="10" stroke-dasharray="" stroke-dashoffset="0" font-family="none" font-weight="none" font-size="none" text-anchor="none" style="mix-blend-mode: normal"><rect x="-62" y="263" width="700" height="700" id="Shape 1 1" vector-effect="non-scaling-stroke"/></g><g fill="#00be91" fill-rule="nonzero" stroke="#00be91" stroke-width="1" stroke-linecap="round" stroke-linejoin="round" stroke-miterlimit="10" stroke-dasharray="" stroke-dashoffset="0" font-family="none" font-weight="none" font-size="none" text-anchor="none" style="mix-blend-mode: normal"><g id="stage"><g id="layer1 1"><path d="M252.24413,559.48632h75l-16.15632,224.12958c0.05388,0.28692 0.08137,0.57723 0.08137,0.87042c0,5.63723 -10.16148,10.2071 -22.6963,10.2071c-12.53482,0 -22.6963,-4.56988 -22.6963,-10.2071c0,-0.28988 0.02687,-0.57694 0.07955,-0.8607zM281.3082,543.08253c-7.61415,-2.68857 -16.19905,-4.9812 -23.02612,-9.68155c-4.00435,-2.75694 -8.90569,-7.63156 -11.55433,-12.00651c-2.45044,-4.04756 -3.67098,-7.46471 -4.59724,-11.97977c-0.63223,-3.08182 -0.82859,-6.507 -0.44999,-9.65211c1.13333,-9.41473 8.10653,-17.7246 17.03192,-20.79315c11.71038,-4.02603 27.10389,-6.57213 30.35215,-20.91696c2.87895,-12.7139 -3.46114,-24.34219 -11.79896,-33.50917c-1.48101,-1.62829 -9.11454,-6.43304 -5.11899,-9.37602c3.99174,-2.94017 9.66802,-2.32249 14.20627,-1.4205c9.90406,1.96845 19.16175,7.37313 26.56061,14.13124c24.5431,22.41763 30.61075,61.51689 20.24469,92.15999c-8.16764,19.40113 -27.45973,27.38439 -47.79877,23.72163z" id="CompoundPath 1"/></g></g></g></svg>