<svg version="1.1" xmlns="http://www.w3.org/2000/svg" xmlns:xlink="http://www.w3.org/1999/xlink" width="700" height="700" viewBox="-62,263,700,700"><g id="document" fill-opacity="0" fill="#ffffff" fill-rule="nonzero" stroke="#000000" stroke-width="0" stroke-linecap="butt" stroke-linejoin="miter" stroke-miterlimit="10" stroke-dasharray="" stroke-dashoffset="0" font-family="none" font-weight="none" font-size="none" text-anchor="none" style="mix-blend-mode: normal"><rect x="-62" y="187.85714" transform="scale(1,1.4)" width="700" height="500" id="Shape 1 1" vector-effect="non-scaling-stroke"/></g><g fill="none" fill-rule="nonzero" stroke="none" stroke-width="1" stroke-linecap="round" stroke-linejoin="round" stroke-miterlimit="10" stroke-dasharray="" stroke-dashoffset="0" font-family="none" font-weight="none" font-size="none" text-anchor="none" style="mix-blend-mode: normal"><g id="stage"><g id="layer1 1"><path d="M100.87792,613.36718c0,-103.44293 83.85707,-187.3 187.3,-187.3c103.44293,0 187.3,83.85707 187.3,187.3c0,103.44293 -83.85707,187.3 -187.3,187.3c-103.44293,0 -187.3,-83.85707 -187.3,-187.3zM288.17792,779.21207c91.5936,0 165.84489,-74.25129 165.84489,-165.84489c0,-91.5936 -74.25129,-165.84489 -165.84489,-165.84489c-91.5936,0 -165.84489,74.25129 -165.84489,165.84489c0,91.5936 74.25129,165.84489 165.84489,165.84489z" id="CompoundPath 1" fill="#00be91" stroke="#00be91"/><path d="M267.47277,592.66203l20.70515,-100.03485l20.70515,100.03485z" id="Path 1" fill="#ffffff" stroke="#ffffff"/><path d="M308.88307,592.66203l100.03485,20.70515l-100.03485,20.70515z" id="Path 1" fill="#00be91" stroke="#00be91"/><path d="M267.47277,634.07233l20.70515,100.03485l20.70515,-100.03485z" id="Path 1" fill="#00be91" stroke="#00be91"/><path d="M267.47277,592.66203l-100.03485,20.70515l100.03485,20.70515z" id="Path 1" fill="#ffffff" stroke="#ffffff"/></g><g id="Layer2 1"><path d="M267.47277,634.07233v-41.41029h41.41029v41.41029z" id="Path 1 1" fill="#39db90" stroke="#39db90"/><path d="M308.88307,592.66203l-41.4103,41.4103v-41.4103z" id="Path 2" fill="#ffffff" stroke="#ffffff"/></g></g></g></svg>