<svg version="1.1" xmlns="http://www.w3.org/2000/svg" xmlns:xlink="http://www.w3.org/1999/xlink" width="700" height="700" viewBox="-62,263,700,700"><g id="document" fill-opacity="0" fill="#ffffff" fill-rule="nonzero" stroke="#000000" stroke-width="0" stroke-linecap="butt" stroke-linejoin="miter" stroke-miterlimit="10" stroke-dasharray="" stroke-dashoffset="0" font-family="none" font-weight="none" font-size="none" text-anchor="none" style="mix-blend-mode: normal"><rect x="-62" y="263" width="700" height="700" id="Shape 1 1" vector-effect="non-scaling-stroke"/></g><g fill="#00be91" fill-rule="nonzero" stroke="#00be91" stroke-width="1" stroke-linecap="round" stroke-linejoin="round" stroke-miterlimit="10" stroke-dasharray="" stroke-dashoffset="0" font-family="none" font-weight="none" font-size="none" text-anchor="none" style="mix-blend-mode: normal"><g id="stage"><g id="layer1 1"><path d="M538,590.09575l-140.64627,272.90425l-140.64627,-272.90425z" id="Path 1"/><path d="M70.34724,481.36037l-32.34724,-61.0491l139.65374,-57.31122l32.34724,61.0491z" id="Path 1"/><path d="M145.46304,424.0491l32.34724,-61.0491l139.65374,57.31122l-32.34724,61.0491z" id="Path 1"/><path d="M284.88066,481.36037l-32.34724,-61.0491l139.65374,-57.31122l32.34724,61.0491z" id="Path 1"/><path d="M439.72528,470.88729l-45.31045,84.02784h-196.80798l98.404,182.48937l-49.55278,91.8952l-172.76842,-320.39758l92.63305,-38.01483h26.51697l93.82447,38.50377l0.06564,0.12388l0.11812,-0.04847l0.118,0.04843l0.06558,-0.12376l93.82465,-38.50384z" id="Path 1"/></g></g></g></svg>