<svg version="1.1" xmlns="http://www.w3.org/2000/svg" xmlns:xlink="http://www.w3.org/1999/xlink" width="700" height="700" viewBox="-62,263,700,700"><g id="document" fill-opacity="0" fill="#ffffff" fill-rule="nonzero" stroke="#000000" stroke-width="0" stroke-linecap="butt" stroke-linejoin="miter" stroke-miterlimit="10" stroke-dasharray="" stroke-dashoffset="0" font-family="none" font-weight="none" font-size="none" text-anchor="none" style="mix-blend-mode: normal"><rect x="-62" y="263" width="700" height="700" id="Shape 1 1" vector-effect="non-scaling-stroke"/></g><g fill="#00be91" fill-rule="nonzero" stroke="#00be91" stroke-width="1" stroke-linecap="round" stroke-linejoin="round" stroke-miterlimit="10" stroke-dasharray="" stroke-dashoffset="0" font-family="none" font-weight="none" font-size="none" text-anchor="none" style="mix-blend-mode: normal"><g id="stage"><g id="layer1 1"><path d="M521.05776,592.9155l-139.93167,250.35025l-139.93167,-250.35025z" id="Path 1 1"/><path d="M166.53665,503.02141l0.00442,0.04519l0.05626,-0.02174l0.05618,0.02171l0.00442,-0.04513l106.99769,-41.33886l104.37253,40.32461v-78.88049l-103.9976,-40.17976l-0.0893,0.91298l-0.11007,-1.12566l-107.23385,41.43008l-106.0711,-40.98082v78.88049z" id="Path 2"/><path d="M343.31071,563.42022h-159.50417l83.15543,148.77248l-44.58682,86.88148l-158.01631,-307.90919l105.27577,40.67357l0.00442,0.04519l0.05626,-0.02174l0.05618,0.02171l0.00442,-0.04513l106.9977,-41.33886l86.77429,33.52548zM63.62417,489.73343h0.00002v0.00004z" id="CompoundPath 1"/></g></g></g></svg>