<svg version="1.1" xmlns="http://www.w3.org/2000/svg" xmlns:xlink="http://www.w3.org/1999/xlink" width="700" height="700" viewBox="-62,263,700,700"><g id="document" fill-opacity="0" fill="#ffffff" fill-rule="nonzero" stroke="#000000" stroke-width="0" stroke-linecap="butt" stroke-linejoin="miter" stroke-miterlimit="10" stroke-dasharray="" stroke-dashoffset="0" font-family="none" font-weight="none" font-size="none" text-anchor="none" style="mix-blend-mode: normal"><rect x="-62" y="263" width="700" height="700" id="Shape 1 1" vector-effect="non-scaling-stroke"/></g><g fill="none" fill-rule="nonzero" stroke="none" stroke-width="1" stroke-linecap="round" stroke-linejoin="round" stroke-miterlimit="10" stroke-dasharray="" stroke-dashoffset="0" font-family="none" font-weight="none" font-size="none" text-anchor="none" style="mix-blend-mode: normal"><g id="stage"><g id="Layer2 1" fill="#008969" stroke="#008969"><path d="M187.99186,767.07479c-10.1571,2.39072 -23.79151,-7.18952 -27.26881,-19.16048l-46.70238,-160.77769c-3.81824,-13.14469 3.51651,-28.9145 14.6695,-31.53962l215.97049,-50.83383c10.16604,-2.39282 23.81243,7.19584 27.29279,19.17733l47.71738,164.27194c3.30768,11.38703 -3.04629,25.04817 -12.70795,27.32227z" id="Path 1 1"/><path d="M268.32344,534.82968l-3.34288,-11.5082c-1.73375,-5.96862 1.59674,-13.12923 6.66099,-14.32122l58.66402,-13.80798c5.38966,-1.26859 12.6245,3.81497 14.46966,10.16713l3.12006,10.74113z" id="Path 1 1"/></g><g id="layer1 1"><path d="M184.27789,740.66933l-51.25853,-258.3193l211.73694,-44.35003l51.25853,258.3193z" id="Path 1" fill="#39db90" stroke="#39db90"/><path d="M236.18207,726.89257l-62.43062,-206.74231l202.47887,-82.15026l62.43062,206.74231z" id="Path 1" fill="#ffffff" stroke="#ffffff"/></g><g id="Layer3 1" fill="#00be91" stroke="#00be91"><path d="M184.63355,772.14221c-11.66286,2.42843 -21.51004,-8.48724 -19.69434,-21.83134l26.03192,-191.31628l253.41129,-52.76497c10.90512,-2.27065 20.11251,7.93582 18.41478,20.41294l-23.28515,171.12948c-1.49135,10.96038 -12.56218,23.91538 -22.14165,25.91001z" id="Path 1 1"/><path d="M190.73277,560.74627l0.54633,-4.01511c1.49397,-10.97966 12.58427,-23.95744 22.18058,-25.95557l129.00357,-26.86096l17.2964,20.3125z" id="Path 1 1"/></g></g></g></svg>