<svg version="1.1" xmlns="http://www.w3.org/2000/svg" xmlns:xlink="http://www.w3.org/1999/xlink" width="700" height="700" viewBox="-62,263,700,700"><g id="document" fill-opacity="0" fill="#ffffff" fill-rule="nonzero" stroke="#000000" stroke-width="0" stroke-linecap="butt" stroke-linejoin="miter" stroke-miterlimit="10" stroke-dasharray="" stroke-dashoffset="0" font-family="none" font-weight="none" font-size="none" text-anchor="none" style="mix-blend-mode: normal"><rect x="-62" y="263" width="700" height="700" id="Shape 1 1" vector-effect="non-scaling-stroke"/></g><g fill="none" fill-rule="nonzero" stroke="none" stroke-width="1" stroke-linecap="none" stroke-linejoin="none" stroke-miterlimit="10" stroke-dasharray="" stroke-dashoffset="0" font-family="none" font-weight="none" font-size="none" text-anchor="none" style="mix-blend-mode: normal"><g id="stage"><g id="layer1 1" stroke-linecap="round" stroke-linejoin="round"><path d="M167.79163,519.16592c-1.55801,0 -3.11603,-1.52273 -3.11603,-3.04547v-8.32423c0,-1.50577 1.54066,-3.01154 3.08131,-3.01154h22.10833c2.11961,0 4.23922,2.07161 4.23922,4.14323v6.05045c0,2.09378 -2.14229,4.18755 -4.28458,4.18755z" id="Path 1" fill="#00be91" stroke="#00be91"/><path d="M167.99026,586.04901c-1.65733,0 -3.31466,-1.6198 -3.31466,-3.2396v-7.68339c0,-1.72912 1.76919,-3.45825 3.53837,-3.45825h22.07214c1.90918,0 3.81836,1.86595 3.81836,3.7319v7.36659c0,1.64137 -1.6794,3.28275 -3.35881,3.28275z" id="Path 1" fill="#00be91" stroke="#00be91"/><path d="M168.46142,654.32493c-1.89291,0 -3.78581,-1.85005 -3.78581,-3.70009v-6.31825c0,-2.18145 2.232,-4.3629 4.46399,-4.3629h20.97442c1.99523,0 3.99046,1.95005 3.99046,3.9001v6.68104c0,1.90005 -1.94407,3.8001 -3.88814,3.8001z" id="Path 1" fill="#00be91" stroke="#00be91"/><path d="M169.30382,721.65044c-2.3141,0 -4.62821,-2.2617 -4.62821,-4.52341v-4.90971c0,-2.47406 2.53138,-4.94812 5.06276,-4.94812h19.562c2.40206,0 4.80411,2.34766 4.80411,4.69532v5.5848c0,2.05056 -2.09807,4.10111 -4.19613,4.10111z" id="Path 1" fill="#00be91" stroke="#00be91"/><path d="M197.07832,750.5c-10.78916,0 -21.57832,-10.78916 -21.57832,-21.57832v-3.42168h16.08365c3.20817,0 6.41635,-3.20817 6.41635,-6.41635v-8.73764c0,-3.673 -3.673,-7.34601 -7.34601,-7.34601h-15.15399v-45h16.5546c2.9727,0 5.9454,-2.9727 5.9454,-5.9454v-10.45274c0,-3.05093 -3.05093,-6.10186 -6.10186,-6.10186h-16.39814v-45h17.36401c2.568,0 5.13599,-2.568 5.13599,-5.13599v-11.52531c0,-2.91935 -2.91935,-5.8387 -5.8387,-5.8387h-16.6613v-45h15.94841c3.27579,0 6.55159,-3.27579 6.55159,-6.55159v-9.46617c0,-3.24112 -3.24112,-6.48224 -6.48224,-6.48224h-15.91547c1.26758,-12.80866 14.10918,-25 26.95077,-25h161.7788c11.83407,0 23.66814,11.83407 23.66814,23.66814v230.47006c0,10.4309 -10.4309,20.8618 -20.8618,20.8618z" id="Path 1" fill="#00be91" stroke="#00be91"/><path d="M227.98834,590.5c-7.49417,0 -14.98834,-7.49417 -14.98834,-14.98834v-75.01166h137.648c6.176,0 12.352,6.176 12.352,12.352v77.648z" id="Path 1" fill="#000000" stroke="#000000"/></g><g id="Layer2 1" fill="#00be91" stroke="none" stroke-linecap="butt" stroke-linejoin="miter" font-family="SpaceMono-Bold" font-weight="normal" font-size="40" text-anchor="middle"><text x="160.05478" y="327.11179" transform="scale(1.79938,1.71927)">&gt;_&gt;</text></g></g></g></svg>