<svg version="1.1" xmlns="http://www.w3.org/2000/svg" xmlns:xlink="http://www.w3.org/1999/xlink" width="700" height="700" viewBox="-62,263,700,700"><g id="document" fill-opacity="0" fill="#ffffff" fill-rule="nonzero" stroke="#000000" stroke-width="0" stroke-linecap="butt" stroke-linejoin="miter" stroke-miterlimit="10" stroke-dasharray="" stroke-dashoffset="0" font-family="none" font-weight="none" font-size="none" text-anchor="none" style="mix-blend-mode: normal"><rect x="-62" y="187.85714" transform="scale(1,1.4)" width="700" height="500" id="Shape 1 1" vector-effect="non-scaling-stroke"/></g><g fill="none" fill-rule="nonzero" stroke="none" stroke-width="1" stroke-linecap="round" stroke-linejoin="round" stroke-miterlimit="10" stroke-dasharray="" stroke-dashoffset="0" font-family="none" font-weight="none" font-size="none" text-anchor="none" style="mix-blend-mode: normal"><g id="stage"><g id="Layer2 1" fill="#00be91" stroke="#00be91"><path d="M75.5,813.45663v-441.41406h425v441.41406z" id="Path 1"/></g><g id="Layer3 1" fill="#000000" stroke="#000000"><path d="M167.13458,600.70336l33.34571,-135.64049l3.43254,-0.56254l7.75773,0.02632l-6.45901,-0.23917l48.75589,-7.99039l-51.36527,7.89377l-1.94188,-0.0719l54.35989,-20.69613l32.9644,14.13178l32.9644,-14.13178l54.35989,20.69613l-52.61251,-10.58044l52.61251,11.54337l0.09556,1.24776l0.66359,-1.26679l33.06541,135.64049l-120.40208,31.98018l0.17356,0.32965l-0.70769,-0.18777l-0.0104,0.00276l0.00253,-0.00484l-0.00002,-0.00001l-0.00251,0.00485h-0.00001l-0.00333,-0.00641l-68.55111,-18.18895l32.77137,18.91654l0.76006,111.73957l-40.13619,-18.94441l-0.02711,-113.47137zM202.60217,464.19086l2.60938,0.09662l-1.29872,0.21284l-3.25254,-0.01104zM288.18681,632.82818z" id="CompoundPath 1"/></g></g></g></svg>