<svg version="1.1" xmlns="http://www.w3.org/2000/svg" xmlns:xlink="http://www.w3.org/1999/xlink" width="700" height="700" viewBox="-62,263,700,700"><g id="document" fill-opacity="0" fill="#ffffff" fill-rule="nonzero" stroke="#000000" stroke-width="0" stroke-linecap="butt" stroke-linejoin="miter" stroke-miterlimit="10" stroke-dasharray="" stroke-dashoffset="0" font-family="none" font-weight="none" font-size="none" text-anchor="none" style="mix-blend-mode: normal"><rect x="-62" y="187.85714" transform="scale(1,1.4)" width="700" height="500" id="Shape 1 1" vector-effect="non-scaling-stroke"/></g><g fill="none" fill-rule="nonzero" stroke="none" stroke-width="1" stroke-linecap="none" stroke-linejoin="none" stroke-miterlimit="10" stroke-dasharray="" stroke-dashoffset="0" font-family="none" font-weight="none" font-size="none" text-anchor="none" style="mix-blend-mode: normal"><g id="stage"><g id="Layer2 1" fill="none" stroke="none" stroke-linecap="butt" stroke-linejoin="miter" font-family="sans-serif" font-weight="normal" font-size="12" text-anchor="start"/><g id="Layer3 1" fill="#00be91" stroke="#00be91" stroke-linecap="round" stroke-linejoin="round"><path d="M167.13458,609.68568l33.34571,-143.38694l3.43254,-0.59467l0.00004,-0.00002l-0.00004,0.00001l-3.25254,-0.01167l1.94188,-0.31546l1.90762,0.07467l16.34579,-6.91325l33.14142,-14.70372l1.02318,-0.4118l32.9644,14.93885l0.7028,-0.31849l26.73906,11.66583l-21.96694,-13.82847l27.48948,-12.45772l54.35989,21.87809l0.4108,1.70078l0.34835,-0.70297l10.92617,47.38095l0.00002,0.00006l-0.00001,-0.00004l22.13923,96.00596l-120.40208,33.80657l0.17356,0.34848l-0.70769,-0.19849l-0.0104,0.00292h-0.00001l-0.00333,-0.00678l-68.55111,-19.22772l32.77137,19.99687l0.76006,118.12103l-40.13619,-20.02633l-0.02711,-119.95173zM253.997,443.83464l-0.00011,0.00004l0.00018,-0.00007zM202.60217,465.37693l-1.94188,-0.07601l53.3366,-21.46625zM375.30887,466.31885l0.09556,1.31902l0.15347,-0.3097zM288.18935,643.64003l-0.00002,-0.00001l-0.00251,0.00513z" id="CompoundPath 1"/></g></g></g></svg>