<svg version="1.1" xmlns="http://www.w3.org/2000/svg" xmlns:xlink="http://www.w3.org/1999/xlink" width="700" height="700" viewBox="-62,263,700,700"><g id="document" fill-opacity="0" fill="#ffffff" fill-rule="nonzero" stroke="#000000" stroke-width="0" stroke-linecap="butt" stroke-linejoin="miter" stroke-miterlimit="10" stroke-dasharray="" stroke-dashoffset="0" font-family="none" font-weight="none" font-size="none" text-anchor="none" style="mix-blend-mode: normal"><rect x="-62" y="263" width="700" height="700" id="Shape 1 1" vector-effect="non-scaling-stroke"/></g><g fill="none" fill-rule="nonzero" stroke="none" stroke-width="1" stroke-linecap="round" stroke-linejoin="round" stroke-miterlimit="10" stroke-dasharray="" stroke-dashoffset="0" font-family="none" font-weight="none" font-size="none" text-anchor="none" style="mix-blend-mode: normal"><g id="stage"><g id="layer1 1"><path d="M363.46298,476.05212l83.33333,49.44788v224.44788l-83.33333,-49.44788z" id="Path 1" fill="#39db90" stroke="#39db90"/><path d="M196.79632,476.05212l83.33333,49.44788l83.33333,-49.44788v224.44788l-83.33333,49.44788l-83.33333,-49.44788z" id="Path 1" fill="#00be91" stroke="#00be91"/><path d="M232.41869,641.24788c38.50769,0 74.14706,20.14102 103.215,54.35c-29.06799,34.20898 -64.70731,54.35 -103.215,54.35c-38.50769,0 -74.14706,-20.14102 -103.215,-54.35c29.06799,-34.20898 64.70731,-54.35 103.215,-54.35z" id="Path 1" fill="#ffffff" stroke="#ffffff"/><path d="M204.0892,695.59788c0,-16.05286 12.68355,-29.06628 28.3295,-29.06628c15.64595,0 28.3295,13.01342 28.3295,29.06628c0,16.05286 -12.68355,29.06628 -28.3295,29.06628c-15.64595,0 -28.3295,-13.01342 -28.3295,-29.06628z" id="Path 1" fill="#00be91" stroke="#00be91"/></g></g></g></svg>