<svg version="1.1" xmlns="http://www.w3.org/2000/svg" xmlns:xlink="http://www.w3.org/1999/xlink" width="200" height="200" viewBox="188,513,200,200"><g id="document" fill-opacity="0" fill="#ffffff" fill-rule="nonzero" stroke="#000000" stroke-width="0" stroke-linecap="butt" stroke-linejoin="miter" stroke-miterlimit="10" stroke-dasharray="" stroke-dashoffset="0" font-family="none" font-weight="none" font-size="none" text-anchor="none" style="mix-blend-mode: normal"><rect x="658" y="1795.5" transform="scale(0.28571,0.28571)" width="700" height="700" id="Shape 1 1" vector-effect="non-scaling-stroke"/></g><g fill="#00be91" fill-rule="nonzero" stroke="#00be91" stroke-width="1" stroke-linecap="round" stroke-linejoin="round" stroke-miterlimit="10" stroke-dasharray="" stroke-dashoffset="0" font-family="none" font-weight="none" font-size="none" text-anchor="none" style="mix-blend-mode: normal"><g id="stage"><g id="layer1 1"><path d="M350.5,607.54855l-37.98102,67.95145l-37.98102,-67.95145z" id="Path 1 1"/><path d="M254.27393,583.149l0.0012,0.01227l0.01527,-0.0059l0.01525,0.00589l0.0012,-0.01225l29.0419,-11.22042l28.32937,10.94513v-21.41018l-28.2276,-10.90581l-0.02424,0.24781l-0.02988,-0.30553l-29.106,11.24518l-28.7904,-11.12324v21.41018z" id="Path 2"/><path d="M302.25492,599.54278h-43.2935l22.5705,40.38065l-12.102,23.58185l-42.88966,-83.57441l28.57453,11.03984l0.0012,0.01227l0.01527,-0.0059l0.01525,0.00589l0.0012,-0.01225l29.0419,-11.22042l23.55275,9.09967zM226.34086,579.54231h0.00001v0.00001z" id="CompoundPath 1"/></g></g></g></svg>